<svg xmlns="http://www.w3.org/2000/svg" xmlns:xlink="http://www.w3.org/1999/xlink" id="e6v6ttbewig1" shape-rendering="geometricPrecision" text-rendering="geometricPrecision" viewBox="0 0 48 48"><style>@keyframes e6v6ttbewig3_to__to{0%{transform:translate(48px,20px);animation-timing-function:cubic-bezier(.075,.82,.165,1)}23.333333%{transform:translate(48px,48px)}}@keyframes e6v6ttbewig4_to__to{0%{transform:translate(0,28px);animation-timing-function:cubic-bezier(.075,.82,.165,1)}23.333333%{transform:translate(0,0)}}#e6v6ttbewig4_to{animation:e6v6ttbewig4_to__to 3000ms linear 1 normal forwards}</style><defs id="defs13"><linearGradient id="linearGradient5148" x1="-.008" x2=".951" y1=".06" y2=".972" gradientTransform="matrix(46,0,0,46,1,1)" gradientUnits="userSpaceOnUse"><stop style="stop-color:#0ff" id="stop5144" offset="0%" stop-opacity="1"/><stop style="stop-color:#a553a8" id="stop5146" offset=".868" stop-opacity="1"/></linearGradient><linearGradient id="linearGradient834" x1="-.008" x2=".951" y1=".06" y2=".972" gradientTransform="matrix(46,0,0,46,1,1)" gradientUnits="userSpaceOnUse"><stop style="stop-color:#0ff" id="stop830" offset="0%" stop-opacity="1"/><stop style="stop-color:#a553a8" id="stop832" offset=".731" stop-opacity="1"/></linearGradient><linearGradient xmlns="http://www.w3.org/2000/svg" xmlns:xlink="http://www.w3.org/1999/xlink" id="linearGradient8548" x1="8.439" x2="35.818" y1="25.365" y2="25.365" gradientUnits="userSpaceOnUse" xlink:href="#_lgradient_4"/><linearGradient xmlns="http://www.w3.org/2000/svg" xmlns:xlink="http://www.w3.org/1999/xlink" id="linearGradient8549" x1="8.439" x2="35.818" y1="25.365" y2="25.365" gradientUnits="userSpaceOnUse" xlink:href="#_lgradient_3"/><linearGradient id="linearGradient906" x1="-.038" x2="1.078" y1="-.053" y2="1.071" gradientTransform="matrix(35.728757,0,0,35.728757,6.1356222,4.6455289)" gradientUnits="userSpaceOnUse" xlink:href="#linearGradient5148"/></defs><linearGradient xmlns="http://www.w3.org/2000/svg" id="_lgradient_4" x1="-.008" x2=".951" y1=".06" y2=".972" gradientTransform="matrix(46,0,0,46,1,1)" gradientUnits="userSpaceOnUse"><stop id="stop2" offset="0%" stop-opacity="1" style="stop-color:#0ff"/><stop id="stop4" offset="98.261%" stop-opacity="1" style="stop-color:#a553a8"/></linearGradient><linearGradient xmlns="http://www.w3.org/2000/svg" id="_lgradient_3" x1=".951" x2="-.008" y1=".972" y2="-.008" gradientTransform="matrix(46,0,0,46,1,1)" gradientUnits="userSpaceOnUse"><stop id="stop2" offset="0%" stop-opacity="1" style="stop-color:#0ff"/><stop id="stop4" offset="98.261%" stop-opacity="1" style="stop-color:#a553a8"/></linearGradient><g id="e6v6ttbewig4_to"><path id="e6v6ttbewig4" fill="url(#_lgradient_4)" fill-rule="evenodd" stroke="none" stroke-width="1" d="M5,35.450000L5,35.450000C5,34.346000,4.104000,33.450000,3,33.450000L3,33.450000C1.896000,33.450000,1,34.346000,1,35.450000L1,35.450000L1,42C1,44.760000,3.240000,47,6,47L42,47C44.760000,47,47,44.760000,47,42L47,22.180000L47,22.180000C47,21.076000,46.104000,20.180000,45,20.180000L45,20.180000C43.896000,20.180000,43,21.076000,43,22.180000L43,22.180000L43,40C43,41.656000,41.656000,43,40,43L8,43C6.344000,43,5,41.656000,5,40L5,35.450000Z" transform="translate(0,0)"/></g></svg>