<svg xmlns="http://www.w3.org/2000/svg" xmlns:xlink="http://www.w3.org/1999/xlink" id="e6v6ttbewig1" shape-rendering="geometricPrecision" text-rendering="geometricPrecision" viewBox="0 0 48 48"><style>@keyframes e6v6ttbewig3_to__to{0%{transform:translate(48px,20px);animation-timing-function:cubic-bezier(.075,.82,.165,1)}23.333333%{transform:translate(48px,48px)}}@keyframes e6v6ttbewig4_to__to{0%{transform:translate(0,28px);animation-timing-function:cubic-bezier(.075,.82,.165,1)}23.333333%{transform:translate(0,0)}}#e6v6ttbewig4_to{animation:e6v6ttbewig4_to__to 3000ms linear 1 normal forwards}</style><defs id="defs13"><linearGradient id="linearGradient5148" x1="-.008" x2=".951" y1=".06" y2=".972" gradientTransform="matrix(46,0,0,46,1,1)" gradientUnits="userSpaceOnUse"><stop style="stop-color:#0ff" id="stop5144" offset="0%" stop-opacity="1"/><stop style="stop-color:#a553a8" id="stop5146" offset=".868" stop-opacity="1"/></linearGradient><linearGradient id="linearGradient834" x1="-.008" x2=".951" y1=".06" y2=".972" gradientTransform="matrix(46,0,0,46,1,1)" gradientUnits="userSpaceOnUse"><stop style="stop-color:#0ff" id="stop830" offset="0%" stop-opacity="1"/><stop style="stop-color:#a553a8" id="stop832" offset=".731" stop-opacity="1"/></linearGradient><linearGradient xmlns="http://www.w3.org/2000/svg" xmlns:xlink="http://www.w3.org/1999/xlink" id="linearGradient8548" x1="8.439" x2="35.818" y1="25.365" y2="25.365" gradientUnits="userSpaceOnUse" xlink:href="#_lgradient_4"/><linearGradient xmlns="http://www.w3.org/2000/svg" xmlns:xlink="http://www.w3.org/1999/xlink" id="linearGradient8549" x1="8.439" x2="35.818" y1="25.365" y2="25.365" gradientUnits="userSpaceOnUse" xlink:href="#_lgradient_3"/><linearGradient id="linearGradient906" x1="-.038" x2="1.078" y1="-.053" y2="1.071" gradientTransform="matrix(35.728757,0,0,35.728757,6.1356222,4.6455289)" gradientUnits="userSpaceOnUse" xlink:href="#linearGradient5148"/></defs><linearGradient xmlns="http://www.w3.org/2000/svg" id="_lgradient_4" x1="-.008" x2=".951" y1=".06" y2=".972" gradientTransform="matrix(46,0,0,46,1,1)" gradientUnits="userSpaceOnUse"><stop id="stop2" offset="0%" stop-opacity="1" style="stop-color:#0ff"/><stop id="stop4" offset="98.261%" stop-opacity="1" style="stop-color:#a553a8"/></linearGradient><linearGradient xmlns="http://www.w3.org/2000/svg" id="_lgradient_3" x1=".951" x2="-.008" y1=".972" y2="-.008" gradientTransform="matrix(46,0,0,46,1,1)" gradientUnits="userSpaceOnUse"><stop id="stop2" offset="0%" stop-opacity="1" style="stop-color:#0ff"/><stop id="stop4" offset="98.261%" stop-opacity="1" style="stop-color:#a553a8"/></linearGradient><g id="e6v6ttbewig4_to"><path id="e6v6ttbewig4" fill="url(#_lgradient_4)" fill-rule="evenodd" stroke="none" stroke-width="1" d="m 43,12.55 v 0 c 0,1.104 0.896,2 2,2 v 0 c 1.104,0 2,-0.896 2,-2 v 0 V 6 C 47,3.24 44.76,1 42,1 H 6 C 3.24,1 1,3.24 1,6 v 19 0 c 0,1.104 0.896,2 2,2 v 0 c 1.104,0 2,-0.896 2,-2 V 25 8 C 5,6.344 6.344,5 8,5 h 32 c 1.656,0 3,1.344 3,3 v 4.55 0 z" transform="translate(0,0)"/></g></svg>