<svg xmlns="http://www.w3.org/2000/svg" xmlns:xlink="http://www.w3.org/1999/xlink" id="e6v6ttbewig1" shape-rendering="geometricPrecision" text-rendering="geometricPrecision" viewBox="0 0 48 48"><style>@keyframes e6v6ttbewig3_to__to{0%{transform:translate(48px,20px);animation-timing-function:cubic-bezier(.075,.82,.165,1)}23.333333%{transform:translate(48px,48px)}}@keyframes e6v6ttbewig4_to__to{0%{transform:translate(0,28px);animation-timing-function:cubic-bezier(.075,.82,.165,1)}23.333333%{transform:translate(0,0)}}</style><defs id="defs13"><linearGradient id="linearGradient5148" x1="-.008" x2=".951" y1=".06" y2=".972" gradientTransform="matrix(46,0,0,46,1,1)" gradientUnits="userSpaceOnUse"><stop style="stop-color:#0ff" id="stop5144" offset="0%" stop-opacity="1"/><stop style="stop-color:#a553a8" id="stop5146" offset=".868" stop-opacity="1"/></linearGradient><linearGradient id="linearGradient834" x1="-.008" x2=".951" y1=".06" y2=".972" gradientTransform="matrix(46,0,0,46,1,1)" gradientUnits="userSpaceOnUse"><stop style="stop-color:#0ff" id="stop830" offset="0%" stop-opacity="1"/><stop style="stop-color:#a553a8" id="stop832" offset=".731" stop-opacity="1"/></linearGradient><linearGradient xmlns="http://www.w3.org/2000/svg" xmlns:xlink="http://www.w3.org/1999/xlink" id="linearGradient8548" x1="8.439" x2="35.818" y1="25.365" y2="25.365" gradientUnits="userSpaceOnUse" xlink:href="#_lgradient_4"/><linearGradient xmlns="http://www.w3.org/2000/svg" xmlns:xlink="http://www.w3.org/1999/xlink" id="linearGradient8549" x1="8.439" x2="35.818" y1="25.365" y2="25.365" gradientUnits="userSpaceOnUse" xlink:href="#_lgradient_3"/><linearGradient id="linearGradient906" x1="-.038" x2="1.078" y1="-.053" y2="1.071" gradientTransform="matrix(35.728757,0,0,35.728757,6.1356222,4.6455289)" gradientUnits="userSpaceOnUse" xlink:href="#linearGradient5148"/></defs><linearGradient xmlns="http://www.w3.org/2000/svg" id="_lgradient_4" x1="-.008" x2=".951" y1=".06" y2=".972" gradientTransform="matrix(46,0,0,46,1,1)" gradientUnits="userSpaceOnUse"><stop id="stop2" offset="0%" stop-opacity="1" style="stop-color:#0ff"/><stop id="stop4" offset="98.261%" stop-opacity="1" style="stop-color:#a553a8"/></linearGradient><linearGradient xmlns="http://www.w3.org/2000/svg" id="_lgradient_3" x1=".951" x2="-.008" y1=".972" y2="-.008" gradientTransform="matrix(46,0,0,46,1,1)" gradientUnits="userSpaceOnUse"><stop id="stop2" offset="0%" stop-opacity="1" style="stop-color:#0ff"/><stop id="stop4" offset="98.261%" stop-opacity="1" style="stop-color:#a553a8"/></linearGradient><path id="e6v6ttbewig2" fill="url(#linearGradient906)" fill-rule="evenodd" stroke="none" stroke-width="1" d="M12.039000,9.627000C11.733000,9.627000,11.431000,9.792000,11.264000,10.049000C11.097000,10.306000,11.071000,10.648000,11.195000,10.928000C15.205000,19.893000,19.216000,28.860000,23.225000,37.826000C23.369000,38.150000,23.715000,38.374000,24.070000,38.373000C24.425000,38.372000,24.768000,38.149000,24.912000,37.824000C28.878000,28.861000,32.841000,19.897000,36.805000,10.934000L36.805000,10.932000C36.928000,10.652000,36.901000,10.311000,36.734000,10.055000C36.568000,9.798000,36.267000,9.635000,35.961000,9.635000C34.855000,9.636000,33.748000,9.636000,32.643000,9.635000C32.280000,9.635000,31.928000,9.872000,31.789000,10.207000C30.044000,14.432000,28.296000,18.656000,26.549000,22.881000C24.808000,18.654000,23.076000,14.418000,21.318000,10.195000C21.179000,9.861000,20.827000,9.627000,20.465000,9.627000C17.657000,9.628000,14.847000,9.628000,12.039000,9.627000Z"/></svg>